<svg version="1" xmlns="http://www.w3.org/2000/svg" width="1280" height="1280" viewBox="0 0 960.000000 960.000000"><path d="M365 188.7c-4.7 5.3-13.4 22.7-24.6 48.8-7.1 16.8-20.6 50.6-24.1 60.2-1.5 4.4-4 6.1-3 2 .3-1.2.9-20.4 1.3-42.7.7-43.7.4-48.8-4.2-56.6-5.7-10-17.6-7.4-19.5 4.3-.7 4.8.2 21.3 2.1 35.3 3.5 26.7 3.7 115.5.4 162.5-2.5 36.3-3.5 62.4-2.4 68.9 1.7 10.4 6.4 14.3 14.3 11.6 3.4-1.2 4.6-2.4 6.5-6.2 3.5-6.9 3.7-19.6 1.7-73.2-.9-25.5-1.4-49.6-1-54.4.6-7.8 1.2-9.6 6.3-19.4 3.1-6 6-10.7 6.4-10.6 1.9.7 13.1 29.4 19.9 50.6 7.1 22.3 16 60.6 23.4 100.2 2 10.7 3.8 19.6 3.9 19.7.1.2 2 .6 4.2 1.1l3.9.9-2.6 1.1c-4.9 2-9.5 7.1-12.8 14.1-6.8 14.7-8.6 33.5-7.8 82.6.7 45.4 3.4 69.8 10.4 92 6.2 19.7 16.1 31.4 26.5 31.5 4.7 0 10.6-3 14.4-7.3 7.4-8.5 10.3-17.1 11.4-34.2.5-7.2 1.4-19.5 2-27.5.7-9 1-28.2.7-50.5-.4-30.3-.8-38.1-2.6-49.5-2.7-17.3-4.3-22.5-9.8-33.3-6.5-12.6-14.3-18.7-23.9-18.7h-2.9l3.2-2c4.9-3 6.7-6.3 6-11.3-1.2-7.7-25.2-85-45.8-147.1-5.4-16.5-9.9-31-9.9-32.3 0-4.7 11-30.6 30.9-72.6 7.3-15.3 13-28.9 13.7-32.5.5-2.7.1-3.7-2.9-6.7-5.1-5.1-8.4-4.8-13.7 1.2zm27.1 319.6c11.2 7.5 18.2 40 19.6 91.2.9 34.1-1.9 69.4-6.7 85.7-5.9 19.7-17.1 16-24.8-8.2-6.2-19-11.2-58.7-11.2-88.5 0-44.5 4.4-73.4 12.1-79.9 3.8-3.2 6.6-3.3 11-.3zM410 220.6c0 12.9.2 14.5 1.6 14 .9-.3 1.8-.6 2-.6.2 0 .4-6.3.4-14 0-13.3-.1-14-2-14s-2 .7-2 14.6zM425.1 220.2c-6.2 13.4-6.5 14.2-4.7 15.7 1.7 1.4 2.2.6 8.6-14 3.7-8.2 3.9-9.4 2.6-10.7-1.4-1.4-2.1-.4-6.5 9zM390 212.4c0 2.7 10.3 23.6 11.6 23.6 2.8 0 2.3-2.4-2.8-13.5-3.8-8.1-5.8-11.4-7-11.5-1 0-1.8.6-1.8 1.4zM555.3 269.1c-3.5 1.3-5.6 10.5-7.3 32.4-2.8 35.5-17.5 114-31.5 167.7-2 7.9-2.3 10.2-1.4 12.2 1.5 3.3 7.1 5.9 10.8 5.1 6.1-1.3 8.3-6.5 11.1-25.6 3-20.7 4.8-27.9 6.8-27.9 3.4 0 29.7 4.2 30.3 4.8 1.1 1.1 4 21.1 4.5 31.7.3 5.5 1 11.2 1.6 12.7 1.2 3.2 6.2 5.8 11.2 5.8 3 0 4-.6 5.7-3.3 2.3-3.6 2.1-6.8-1.2-24.2-3.4-17.8-6.7-41.7-7.4-53-.7-12.9-2.6-30.7-6-57-3.7-28.6-6.5-57.4-6.5-67.3 0-12.5-1.1-13.6-14-14.6-2.5-.1-5.5.1-6.7.5zM567 347c2.9 29.2 5.8 77.5 4.7 78.6-.8.8-19-1.4-23.4-2.9l-3.8-1.3.2-5.4c.2-7.9 7.9-55.6 17.1-106l.6-3.5.8 5c.4 2.7 2.1 18.7 3.8 35.5zM447.7 271.1c-1.1.6-2.5 2.6-3.3 4.5-2 4.8-1.8 34.8.6 86.9 1.2 23.6 2.3 60.5 2.7 82 .5 37.5.6 39.1 2.6 41.2 1.5 1.7 3.2 2.3 6.3 2.3 4.1 0 4.3-.1 5.9-4.5 1.6-4.2 1.7-5 .1-13.2-.9-4.9-2.1-13.1-2.7-18.3-1.2-11-2.2-69.4-1.3-72.8.4-1.2 1.4-2.2 2.5-2.2 2.4 0 3.4 3.5 10.4 37.5 9.1 44.3 14.1 61.6 20.6 70.5 3.7 5.1 7 6.5 10.8 4.5 5.3-2.7 5.3-7.5 0-18.5-8.1-16.9-14.7-41-22.6-82.2l-3.7-19.8 7.2-14.2c4-7.9 7.7-16.7 8.3-19.5.6-3.1.9-12.8.7-23-.3-17.2-.4-18-3.2-23.6-3.3-6.9-9.9-12.5-18.3-15.7-6.8-2.6-20.8-3.7-23.6-1.9zm20.4 12.6c1.8 1.1 4.1 4.1 5.7 7.3 2.6 5.2 2.7 6.3 2.7 20 0 12.5-.4 15.9-2.7 24.6-3.2 12.2-5.7 17.8-10.1 22.4l-3.2 3.5-.6-18.5c-.9-26.2-1-59.5-.2-60.3 1.2-1.3 5.5-.7 8.4 1zM604.8 272.5c-5 2.8-4.5 8 1.1 10.9 3.1 1.6 13.5 3.6 19.1 3.6h3.6l1.2 25.3c1.9 39.9 6.1 111.2 7.2 122.1.6 5.4 1 17.8 1 27.6v17.9l2.9 2c4.1 3 6.8 2.6 10.9-1.5l3.5-3.5-.7-18.2c-.7-20.1-2.4-44.3-6.1-88.7-3.4-41.3-5.2-79.7-3.7-81.2.9-.9 3-.9 8.7 0 11 1.7 16.5-.9 16.5-7.8 0-6.5-1.9-7.3-19.3-8.1-42.2-2-43.1-2.1-45.9-.4z"/><path d="M402 381.5c0 105.4-.1 103.8 4.8 106.4 3.4 1.8 7.9 1.3 10.9-1.3l2.8-2.4.3-100.6c.1-59.1-.1-100.6-.7-100.6-.5 0-2.2.7-3.7 1.5-1.6.8-3.8 1.5-4.9 1.5-1.1 0-3.3-.7-4.9-1.5-1.5-.8-3.2-1.5-3.7-1.5s-.9 42-.9 98.5zM291.6 487.5c-1.7 1.3-1.9 2.4-1.3 12.2.7 11.4 3.5 24.6 9.3 43 5.4 17.3 8.3 31.6 9.4 46.3.6 7.4 1.8 19.6 2.7 27 2.6 22.4 2.8 27.3 2.1 57.5-.7 31.4-.5 32.8 4.6 34.1 2.8.7 8.1-1.8 9-4.2.3-.9.1-21-.5-44.8-1.2-44.4-.8-77.1 1.1-91.1.6-4.4 2.7-16.7 4.6-27.4 3.7-20.9 6.7-44.4 6.2-48.7-.2-2.1-1-3-3.3-3.6-4.6-1.2-6.5 0-9.1 5.5-2.8 6.4-4.7 17.1-6.8 38.7-3 31.4-2.8 29.8-3.7 26.5-.5-1.7-2.7-13.1-5-25.5-6.2-33.8-10.5-47-15.2-47-1.2 0-3.1.7-4.1 1.5zM565.5 491.2c-11.5 1.1-24.5 4.3-26.6 6.6-.9.9-1.9 3.9-2.1 6.7-.3 2.7-.3 4.2-.1 3.2.5-2.1.8-2.1 3.8-.1 2 1.3 3.6 1.4 9.7.6 4-.5 7.7-.6 8.2-.2 1.9 1.8 2.5 10.7 2.5 36.5.1 14.8.8 42.3 1.8 61 1.4 28.5 1.5 38.5.6 61.8-1.2 30.9-.9 34.4 4 38.1 2.6 1.9 3 1.9 5.5.5 4.9-2.7 5.5-6.9 4.3-29.9-2-37.5-3.2-81-3.5-124-.2-23.4-.7-43.5-1.1-44.8-.7-2.2-.6-2.2 7.1-2.2 8.5 0 9.5-.4 11.3-3.7 1.8-3.5 1.3-6-2-8.7-3.4-2.9-6.6-3.1-23.4-1.4zM648.1 540.2l.4 50.3-5.3.6c-2.9.4-8.5.9-12.5 1l-7.2.4-.7-26c-.4-14.3-.9-36.5-1.1-49.4l-.3-23.3-2.4-1.4c-1.4-.7-4-1.3-5.7-1.4-2.7 0-3.4.5-3.9 2.7-2 7.6 1.5 134.6 4.6 170.8 2.8 32.5 7.8 45.9 13.6 36.9 1.5-2.2 1.6-4.6 1-20.7-.4-10-1.1-23.4-1.6-29.7-.5-6.3-1.2-20.3-1.6-31.1l-.7-19.6 3.8-1.3c4.1-1.4 18.1-.8 19.6.7 1.1 1.1 2.9 53.7 2.9 83.4 0 19.3.1 20.8 2.1 23.3 2.6 3.3 5.9 3.3 9 0 2.2-2.4 2.4-3.5 2.7-14.7.4-11.7-.7-47.9-2.9-101.1-.5-13.8-1.3-40.2-1.7-58.6-.7-30.5-.9-33.8-2.7-36.7-1.7-2.8-5.8-5.3-8.8-5.3-.6 0-.8 17.4-.6 50.2zM504.5 492.4c-5.6 2.4-5.8 3.2-5.1 19.1.4 7.9 1.1 26.9 1.6 42.2.5 15.3 1.5 33.6 2.2 40.8 1.8 18.3 1.8 88 0 95.7-1.6 6.9-4.6 9.8-10.3 9.8-9.6 0-19.5-16.2-24.4-39.9-.8-4-2-14.4-2.5-23-.6-8.6-1.5-17.9-2-20.6-.6-2.8-1.7-28.9-2.5-58-.8-29.2-1.7-54.7-2-56.8-.9-4.9-4.9-9.7-8.1-9.7-3.9 0-7.4 4.2-7.4 8.9 0 2.2.4 4.2.8 4.5.5.3.9 20.5 1 44.8.1 57.1 1.6 79.1 7.3 107.8 5.4 26.6 16.6 46 29.3 50.3 11.2 3.8 22.8.7 28.2-7.7 6.8-10.4 8-26.7 5.9-78.1-3.8-92.1-3.9-97.5-2.7-111l1.2-13-3.8-3.7c-3.5-3.5-3.8-3.6-6.7-2.4zM339.2 717.5c-4.7 4-5.5 7.9-5 26.1.4 13.3.8 16.8 2.6 21.5 2.9 7.4 6.8 11 12.5 11.6 3.8.5 4.8.1 7.7-2.4 2.9-2.6 3.4-3.8 4.6-11.9 2.3-15.2 1.3-32.3-2.3-38.9-2.5-4.5-6.9-7.5-11.9-8.1-4.4-.6-5.3-.3-8.2 2.1zm12.4 4.2c4.3 4.6 5.9 12.2 5.8 27.8 0 12.1-.3 14.6-2.1 18.7-1.7 3.8-2.7 4.8-4.6 4.8-2.4 0-5.6-2.8-7.5-6.5-3.5-7.1-5.4-29.5-3.3-38.8 2-8.7 6.9-11.2 11.7-6zM443.7 715.7c-.4.3-.7 11.3-.7 24.4 0 22.2-.8 29.4-2.5 21.7-1.3-5.8-8.5-24.2-13.5-34.4-4.7-9.7-7.2-12.6-9.3-10.5-1.5 1.5-2 15.7-1.2 37.4l.7 20.7h2.4c1.2 0 2.5-.3 2.7-.8.3-.4.2-10.6-.2-22.7s-.4-22.3-.1-22.7c.3-.4 3.4 6.3 6.8 15 8.4 21 14.1 31.7 16.7 31.7 1.9 0 2-.9 2.7-28 .3-15.4.7-28.5.8-29 .5-2.5-.2-3.5-2.3-3.5-1.3 0-2.7.3-3 .7zM596.8 716.5c-4.9 2.7-6.1 6.7-6.6 20.6-1 29.1 8.3 45.4 21.8 38.4 5.8-3 6.5-5.9 6.5-27 0-18.4-.1-19.2-2.5-23.9-1.4-2.7-3.7-5.8-5.1-6.9-3.5-2.6-10.6-3.2-14.1-1.2zm11.6 5.5c4.2 5 5.1 10 5.1 27.5 0 13.5-.3 16.5-1.8 19.3-2.2 4-4 4.8-7.3 3.3-7.7-3.5-12.2-35.1-6.9-47.8 2.6-6.3 6.8-7.1 10.9-2.3zM658 716.2c.1 5.3-1.2 48.3-1.4 48.6-.2.1-1.9-4.4-3.9-10-9.9-28.6-19.2-44.7-21.2-36.6-.9 3.7-1.1 29.1-.3 43.3.7 12.8.7 13 3.1 13.3 3.4.4 3.8-1.4 2.6-11-.5-4.6-.8-14.8-.7-22.8l.3-14.5 2.4 6.5c4.1 11.2 13.8 33.5 16.8 38.3 1.5 2.6 3.3 4.7 3.9 4.7 2.9 0 3.3-3.2 3.5-31.5l.1-29-2.6-.3c-1.6-.2-2.6.1-2.6 1zM311.2 717.1c-3.3 1-3.4 1.1-2.9 5.2.3 2.3 1.1 14.1 1.7 26.2 1.4 27.4 1.3 26.7 4.8 26.3 2.6-.3 2.7-.5 2.7-6.3 0-3.3-.4-9.7-.9-14.3l-.8-8.2h3c4 0 6.2-.9 6.2-2.6 0-1-1.3-1.4-4.4-1.4h-4.4l-.7-6.8c-.4-3.7-.7-8.5-.8-10.7l-.2-4 4.3-.3c2.7-.2 4.2-.8 4.2-1.7 0-2.5-5.5-3.2-11.8-1.4zM462 716.7c-3.5.7-4 2-2.5 6.7 1.8 5.7 3.5 39.7 2.3 48.6-.3 2.1.2 2.6 2.7 2.8 7.7.9 16.7-5.6 21.8-15.8 2.4-4.8 2.7-6.5 2.7-15.9 0-9-.4-11.4-2.4-15.7-1.3-2.8-3.7-6-5.3-7.2-4.7-3.3-12.5-4.7-19.3-3.5zm11.4 5.7c12.8 5.3 14 31.2 2 43.3-6.2 6.2-7.4 5.8-7.4-2.5 0-3.7-.7-14.3-1.5-23.7-.7-9.3-1.1-17.3-.9-17.7.8-1.2 4.1-1 7.8.6zM571 716.5c-.8.2-3.2.6-5.2 1-4.3.7-5.4 3.5-1.5 3.5 2.4 0 2.4.2 3 12.7.4 7.1 1 18.3 1.3 25l.7 12.3h-3.7c-4.5 0-4.9 2.5-.5 3.4 4 .8 13.3.8 15.3 0 2.2-.8 2-3.4-.1-3.5-1-.1-2.5-.2-3.3-.3-1.2-.1-1.6-2.3-2.2-10.1-.4-5.5-1.1-16.5-1.7-24.4-.6-7.9-.8-14.8-.5-15.2.3-.5 1.8-.9 3.5-.9 1.8 0 2.9-.5 2.9-1.4 0-2.2-3.4-3-8-2.1zM372.8 717.7c-.2.5-.1 8.9.3 18.8.9 23.9 3 30.8 11.3 37.3 2.2 1.7 4.2 2.2 8.3 2.2 6.8 0 9.1-1.2 11-5.7 1.2-3.1 1.3-6.2.3-21.7-.6-10-1.2-21-1.3-24.6-.2-6.4-.3-6.5-3.1-6.8l-2.9-.4.7 11.4c1.9 35.8 1.9 42.3.2 44.1-2.3 2.3-5.2 2.1-8.8-.4-5.7-4.1-7.3-10.7-8.8-35.7-.5-9.7-1.4-16.9-2.1-17.8-1.2-1.5-4.5-1.9-5.1-.7zM510.6 721.2c-1.4 2.4-4.3 10.6-6.5 18.3-7.6 27.3-9.1 32.6-9.1 33.5 0 .6 1.1 1 2.4 1 2.1 0 2.7-.9 4.6-6.6l2.2-6.6 6.1.7c3.4.3 6.5.9 6.9 1.1.4.3.8 2.6.8 5.2s.4 5.3.9 6c1.2 2 5.5 1.1 6-1.3.6-3.1-1.9-26.4-4.4-41.5-2.1-13.1-2.3-13.5-4.8-13.8-2.1-.3-3 .4-5.1 4zm5.7 22.1c1 7.6 1.5 14.2 1.2 14.7-.5.8-10.5.3-11.4-.6-.7-.7 1.7-12.3 4.5-21.3 1.4-4.6 2.9-8 3.3-7.5.4.5 1.5 7.1 2.4 14.7zM533.8 717.7c-1.6.2-2.8 1.1-2.8 1.9 0 1 1.3 1.4 5 1.4 4.8 0 4.9.1 5.5 3.2.3 1.8.7 13.8.9 26.7.2 19.6.5 23.5 1.8 24.2.9.5 2.2.3 3.2-.4 1.6-1.2 1.6-2.6.7-17.2-.6-8.8-1.1-20.8-1.1-26.7V720h4c2.9 0 4-.4 4-1.5 0-1.2-1.6-1.5-9.2-1.4-5.1.1-10.5.4-12 .6z"/></svg>